<svg xmlns="http://www.w3.org/2000/svg" viewBox="0 0 360 240" width="100%" height="100%">
  <defs>
    <linearGradient id="iconPurpleLeft" x1="0%" y1="0%" x2="100%" y2="100%">
      <stop offset="0%" stop-color="#6366f1" />
      <stop offset="40%" stop-color="#8b5cf6" />
      <stop offset="100%" stop-color="#a855f7" />
    </linearGradient>
    <linearGradient id="iconPurpleRight" x1="0%" y1="0%" x2="100%" y2="100%">
      <stop offset="0%" stop-color="#8b5cf6" />
      <stop offset="60%" stop-color="#c026d3" />
      <stop offset="100%" stop-color="#ec4899" />
    </linearGradient>
    <filter id="iconGlow" x="-20%" y="-20%" width="140%" height="140%">
      <feDropShadow dx="0" dy="4" stdDeviation="6" flood-color="#8b5cf6" flood-opacity="0.4" />
    </filter>
  </defs>

  <g filter="url(#iconGlow)" transform="translate(10, 0)">
    <!-- Left Chat Loop & Tail -->
    <path d="M 125 35 C 75 35 35 72 35 120 C 35 146 46 168 65 182 L 44 212 C 72 206 92 196 105 188 C 128 196 152 182 170 150 C 142 110 142 35 125 35 Z" fill="url(#iconPurpleLeft)" />
    
    <!-- Left Speech Bubble Inner Hole (transparent dark fill) -->
    <ellipse cx="100" cy="116" rx="38" ry="40" fill="#0d0d12" />

    <!-- Right Chat Loop & Tail -->
    <path d="M 215 35 C 265 35 305 72 305 120 C 305 146 294 168 275 182 L 296 212 C 268 206 248 196 235 188 C 212 196 188 182 170 150 C 198 110 198 35 215 35 Z" fill="url(#iconPurpleRight)" />

    <!-- Right Speech Bubble Inner Hole -->
    <ellipse cx="240" cy="116" rx="38" ry="40" fill="#0d0d12" />

    <!-- Overlapping Continuous Infinity Ribbon -->
    <path d="M 125 35 C 150 35 170 88 170 150 C 170 88 190 35 215 35 C 232 35 252 46 264 64 C 234 52 205 69 184 102 C 166 130 148 165 122 178 C 100 188 72 183 57 166 C 77 183 120 174 148 138 C 170 108 182 66 162 66 C 140 66 125 102 105 131 C 85 160 54 168 38 120 C 38 72 75 35 125 35 Z" fill="url(#iconPurpleLeft)" opacity="0.95" />
  </g>
</svg>
